# xmcd
#
# Track frame offsets:
#      150
#      17392
#      33953
#      48504
#      62590
#      76065
#      91423
#      105546
#      119897
#      132379
#      148240
#      167783
#      183143
#
# Disc length: 2702 seconds
#
# Revision: 0
# Processed by: cddbd v1.4PL0 Copyright (c) Steve Scherf et al.
# Submitted via: SoundClick v1.0
#
DISCID=aa0a8c0d
DTITLE=Kris Kristofferson - Greatest Hits
DYEAR=1900
DGENRE=
TTITLE0=Lovin' Her Was Easier
TTITLE1=Border Lord
TTITLE2=Josie
TTITLE3=Kiss The World Good-bye
TTITLE4=Billy Dee
TTITLE5=Good Christian Soldier
TTITLE6=Jody And The Kid
TTITLE7=The Pilgrim
TTITLE8=Breakdown( A Long Way From Home)
TTITLE9=Why Me Lord
TTITLE10=Silver Tongued Devil
TTITLE11=Burden Of Freedom
TTITLE12=Me And Bobby Mcgee
EXTD=
EXTT0=
EXTT1=
EXTT2=
EXTT3=
EXTT4=
EXTT5=
EXTT6=
EXTT7=
EXTT8=
EXTT9=
EXTT10=
EXTT11=
EXTT12=
PLAYORDER=
